<svg xmlns="http://www.w3.org/2000/svg" width="512" height="512" viewBox="0 0 512 512">
  <g id="favicon" transform="translate(-804.44 -30.597)">
    <g id="favicon-inner" transform="translate(0 -51)">
      <path id="bottom" d="M350.832,83.447C286.95,124.893,216.1,154.3,154.109,179.565,121.991,192.79,92.47,204.834,68.5,216.878a138.865,138.865,0,0,0,41.328,25.742,191.293,191.293,0,0,0,72.738,12.635,207.352,207.352,0,0,0,101.668-23.616A232.5,232.5,0,0,0,357.8,169.055a273.71,273.71,0,0,0,43.926-85.609A317.41,317.41,0,0,0,413.533,27.24,283.4,283.4,0,0,1,350.832,83.447Z" transform="translate(842.922 301.433)" fill="#161e2a"/>
      <path id="middle" d="M59.44,419.1c11.808-9.447,25.86-20.9,41.8-34.244,28.93-24.325,79-44.753,136.856-68.487,60.93-25.033,129.889-53.373,190.819-92.34C504.724,175.377,549.949,73.236,571.44,11.48A897.411,897.411,0,0,1,413.8,85.989a1123.081,1123.081,0,0,0-181.137,85.255C138.318,228.041,84.237,348.248,59.44,419.1Z" transform="translate(745 131.097)" fill="#139be8"/>
      <path id="top" d="M160.684,161.223a1157.2,1157.2,0,0,1,186.8-88.089c21.491-8.5,42.509-16.886,63.173-25.86A140.756,140.756,0,0,0,369.57,22.123,191.528,191.528,0,0,0,297.3,9.488,202.627,202.627,0,0,0,197.643,33.1a244.193,244.193,0,0,0-73.565,62.111,271.588,271.588,0,0,0-45.461,86.2,307.017,307.017,0,0,0-14.288,69.55,359.2,359.2,0,0,1,96.354-89.742Z" transform="translate(797.852 109)" fill="#161e2a"/>
    </g>
    <rect id="favicon-area" width="512" height="512" transform="translate(804.44 30.597)" fill="none"/>
  </g>
</svg>
